<svg width="48" height="45" viewBox="0 0 48 45" fill="none" xmlns="http://www.w3.org/2000/svg">
<g clip-path="url(#clip0_275_11706)">
<path d="M25.9224 13.796C26.0841 15.3138 26.6033 16.7892 27.5564 17.9932C27.9649 18.5105 28.4329 18.9768 28.9521 19.3839C30.1519 20.3251 31.6327 20.8507 33.1474 21.0118L46.772 22.4703C46.7549 19.2651 46.2784 16.1108 45.4189 13.0583C43.8361 7.38561 39.3683 2.93398 33.6751 1.35682C30.6881 0.525848 27.6159 0.0510061 24.4844 0.0170898L25.9224 13.8045V13.796Z" fill="white"/>
<path d="M33.1115 24.2514C31.7669 24.3956 30.4564 24.8195 29.3416 25.5827C27.7077 26.7104 26.5077 28.4063 26.0313 30.3989L24.2952 37.5894L22.5592 30.3989C22.1167 28.5759 21.0699 26.9988 19.6402 25.8795C18.4317 24.9383 16.9511 24.4125 15.4278 24.2514L1.34375 22.793C1.36077 26.0067 1.84584 29.1524 2.69684 32.2135C4.2797 37.8861 8.74744 42.3377 14.4406 43.9149C17.5553 44.7798 20.7721 45.2632 24.0484 45.2632C27.3247 45.2632 30.5415 44.7798 33.6562 43.9149C39.3578 42.3293 43.8257 37.8776 45.4085 32.205C46.2595 29.1524 46.7445 26.0067 46.7616 22.793L33.1115 24.2514Z" fill="white"/>
<path d="M15.4356 21.0117C16.9589 20.8506 18.4396 20.3335 19.6481 19.3838C20.1671 18.9767 20.6352 18.5103 21.0437 17.9931C21.9883 16.7891 22.5159 15.3136 22.6776 13.7959L24.1158 0C24.1158 0 24.0818 2.96977e-09 24.0647 4.38424e-09C20.7884 2.89259e-07 17.5716 0.483323 14.4484 1.34821C8.75525 2.92537 4.29603 7.377 2.70465 13.0497C1.84514 16.1107 1.36858 19.2565 1.35156 22.4702L15.4356 21.0117Z" fill="white"/>
</g>
<defs>
<clipPath id="clip0_275_11706">
<rect width="48" height="45" fill="white"/>
</clipPath>
</defs>
</svg>
